<?xml version="1.0" encoding="utf-8"?>
<!-- Generator: Adobe Illustrator 18.1.0, SVG Export Plug-In . SVG Version: 6.00 Build 0)  -->
<svg version="1.1" xmlns="http://www.w3.org/2000/svg" xmlns:xlink="http://www.w3.org/1999/xlink" x="0px" y="0px"
	 viewBox="0 0 479.3 479.3" enable-background="new 0 0 479.3 479.3" xml:space="preserve">
<g id="Lager_1">
	<circle fill="#9DACC1" cx="239.6" cy="239.6" r="239.6"/>
</g>
<g id="Lager_2">
	<polygon display="none" fill="#FFFFFF" points="239.6,203.6 114.6,166.1 239.6,128.6 364.7,166.1 	"/>
</g>
<g id="Lager_3">
	<polygon fill="#FFFFFF" points="233.5,365.8 127.8,302.3 125.8,187.2 233.5,248.1 	"/>
	<polygon fill="#FFFFFF" points="350,301.3 246.2,364.8 246.2,249.6 353.5,186.2 	"/>
	<polygon fill="#FFFFFF" points="238.6,111.8 347.8,175.1 240.5,238.9 129,175.1 	"/>
	<g>
		<g>
			<path fill="#9DACC1" d="M153.8,250l-10.5-8.9c0.9-4.2,2.5-6.9,5-8c2.5-1.1,6-0.2,10.5,2.5c5.2,3.1,9,6.7,11.3,10.9
				c2.3,4.1,3.5,8.3,3.5,12.4c0,2.4-0.5,4.4-1.4,5.8c-0.9,1.4-2.4,2.3-4.3,2.7c1.5,1.4,2.7,2.8,3.5,4c1.3,1.9,2.3,4,3.1,6.4
				c0.7,2.3,1.1,4.8,1.1,7.4c0,3.3-0.6,6.1-1.8,8.4c-1.2,2.3-3,3.6-5.2,3.9c-2.3,0.3-5.3-0.6-9-2.7c-3.6-2.1-6.5-4.3-8.6-6.8
				c-2.1-2.4-3.8-5.2-5.2-8.3c-1.3-3.1-2.4-6.7-3.1-10.6l11.1,4.4c0.4,3.4,1.1,6,2,7.8c0.9,1.8,2.1,3,3.5,3.9
				c1.5,0.9,2.7,0.8,3.7-0.2c1-1,1.5-2.7,1.5-5.3c0-2.6-0.5-4.9-1.4-6.9c-0.9-2-2.2-3.5-3.9-4.4c-0.9-0.5-2.1-0.9-3.6-1.2l0.6-10.9
				c0.6,0.5,1.1,0.8,1.4,1c1.4,0.9,2.7,0.9,3.6,0.2c1-0.7,1.5-2,1.5-3.8c0-1.7-0.4-3.3-1.1-4.8c-0.7-1.5-1.7-2.6-3-3.3
				c-1.3-0.8-2.4-0.8-3.2-0.2C154.6,245.7,154.1,247.3,153.8,250z"/>
			<path fill="#9DACC1" d="M182.1,250.6l18.3,11c3.6,2.2,6.5,4.6,8.7,7.3c2.2,2.7,4,5.7,5.5,9.1c1.4,3.4,2.5,7,3.1,10.7
				c0.6,3.8,1,7.5,1,11.3c0,5.9-0.5,10.2-1.5,12.9c-1,2.7-2.3,4.6-4,5.8c-1.7,1.2-3.6,1.6-5.5,1.2c-2.7-0.5-5.1-1.5-7.3-2.7
				l-18.3-10.5L182.1,250.6z M194.4,270.6l0,30.5l3,1.8c2.6,1.5,4.4,2.2,5.5,2c1.1-0.2,1.9-1.1,2.6-2.7c0.6-1.6,0.9-4.7,0.9-9.1
				c0-5.9-0.7-10.3-2-13.3c-1.4-3-3.7-5.4-6.8-7.3L194.4,270.6z"/>
		</g>
	</g>
</g>
</svg>
