<?xml version="1.0" encoding="utf-8"?>
<!-- Generator: Adobe Illustrator 16.0.4, SVG Export Plug-In . SVG Version: 6.00 Build 0)  -->
<!DOCTYPE svg PUBLIC "-//W3C//DTD SVG 1.1//EN" "http://www.w3.org/Graphics/SVG/1.1/DTD/svg11.dtd">
<svg version="1.1" id="Layer_1" xmlns="http://www.w3.org/2000/svg" xmlns:xlink="http://www.w3.org/1999/xlink" x="0px" y="0px"
	 width="960px" height="560px" viewBox="0 0 960 560" enable-background="new 0 0 960 560" xml:space="preserve">
<path fill="#FFFFFF" d="M686.564,253.833C671.13,269.66,508.679,424.379,508.679,424.379c-8.241,8.45-19.044,12.683-29.847,12.683
	c-10.817,0-21.621-4.232-29.848-12.683c0,0-162.451-154.719-177.902-170.546c-15.433-15.834-16.484-44.304,0-61.204
	c16.471-16.891,39.482-18.23,59.696,0l148.054,141.941L626.87,192.628c20.228-18.23,43.226-16.891,59.694,0
	C703.062,209.529,702.015,237.999,686.564,253.833z"/>
<path fill="none" stroke="#FFFFFF" stroke-width="30.3062" stroke-miterlimit="10" d="M941,277.946
	c0,254.503-206.32,460.822-460.822,460.822c-254.506,0-460.822-206.319-460.822-460.822c0-254.506,206.316-460.822,460.822-460.822
	C734.68-182.876,941,23.44,941,277.946z"/>
</svg>
