<?xml version="1.0" encoding="utf-8"?>
<!-- Generator: Adobe Illustrator 18.1.0, SVG Export Plug-In . SVG Version: 6.00 Build 0)  -->
<svg version="1.1" id="Layer_1" xmlns="http://www.w3.org/2000/svg" xmlns:xlink="http://www.w3.org/1999/xlink" x="0px" y="0px"
	 viewBox="-292 382.1 25.3 28.9" enable-background="new -292 382.1 25.3 28.9" xml:space="preserve">
<g>
	<circle fill="#FFFFFF" cx="-282.7" cy="390.7" r="2.3"/>
	<circle fill="#FFFFFF" cx="-277.6" cy="399.5" r="1.5"/>
	<path fill="#FFFFFF" d="M-269.4,394.5c1.9-9.3-5.6-13.5-14-12.2c-8.4,1.3-8,6.4-8.5,8.8c-1,6,5.2,12.8,5.2,12.8l-0.4,7h10.1
		l0.8-3.2c0,0,0.4,0.7,3.1,1c2.6,0.2,2.3-3,2.3-3s1.7-0.8,1.7-1.3s-1-1.3-1-1.3s1.1,0.2,1.5-0.3c0.4-0.5-0.5-2.2-0.5-2.2
		s1.4,0,2.2-0.9C-266,398.9-269.4,396.2-269.4,394.5z M-283.8,395.8c0,0-0.1-0.6-0.1-0.9c-0.3-0.1-0.5-0.2-0.7-0.3
		c-0.3,0.2-0.8,0.7-0.8,0.7s-0.1,0.1-0.1,0.1c0,0-0.9-0.1-0.9-0.1l-1.5-1.8v-1.1c0,0,0.6-0.5,0.9-0.7c-0.1-0.2-0.1-0.5-0.1-0.7
		c-0.4-0.2-1.1-0.5-1.1-0.5l-0.3-0.9l0-0.1l1-2.1l1-0.3c0,0,0.7,0.3,1,0.4c0.2-0.2,0.4-0.3,0.6-0.4c0-0.4-0.1-1.2-0.1-1.2l0.8-0.8
		l2.3-0.2l0.8,0.8c0,0,0,0.6,0.1,0.9c0.3,0.1,0.6,0.2,0.9,0.3c0.3-0.2,0.8-0.6,0.8-0.6h1.1l1.5,1.8v1.1c0,0-0.6,0.5-0.9,0.8
		c0,0.2,0.1,0.4,0.1,0.7c0.4,0.2,1.2,0.7,1.2,0.7l0.3,1l-1.2,2l-1,0.3c0,0-0.6-0.4-0.9-0.5c-0.2,0.1-0.4,0.3-0.5,0.4
		c0,0.4,0.1,1.2,0.1,1.2l-0.8,0.8l-2.3,0.2L-283.8,395.8z M-274.4,401.8l-0.7,0.2c0,0-0.4-0.2-0.6-0.3c-0.1,0.1-0.2,0.2-0.3,0.2
		c0,0.3,0.1,0.8,0.1,0.8l-0.5,0.5l-1.5,0.1l-0.5-0.5c0,0,0-0.4-0.1-0.6c-0.2,0-0.3-0.1-0.5-0.2c-0.2,0.2-0.5,0.5-0.5,0.5
		s-0.1,0-0.1,0c0,0-0.6,0-0.6,0l-1-1.1v-0.7c0,0,0.4-0.3,0.6-0.5c0-0.2-0.1-0.3-0.1-0.5c-0.2-0.1-0.7-0.3-0.7-0.3l-0.2-0.6l0-0.1
		l0.6-1.4l0.7-0.2c0,0,0.4,0.2,0.6,0.3c0.1-0.1,0.3-0.2,0.4-0.3c0-0.3-0.1-0.8-0.1-0.8l0.5-0.5l1.5-0.1l0.5,0.5c0,0,0,0.4,0,0.6
		c0.2,0.1,0.4,0.1,0.6,0.2c0.2-0.1,0.5-0.4,0.5-0.4h0.7l1,1.1v0.7c0,0-0.4,0.3-0.6,0.5c0,0.1,0,0.3,0.1,0.4c0.2,0.1,0.8,0.4,0.8,0.4
		l0.2,0.7L-274.4,401.8z"/>
</g>
</svg>
