<?xml version="1.0" encoding="utf-8"?>
<!-- Generator: Adobe Illustrator 18.1.0, SVG Export Plug-In . SVG Version: 6.00 Build 0)  -->
<svg version="1.1" id="Layer_1" xmlns="http://www.w3.org/2000/svg" xmlns:xlink="http://www.w3.org/1999/xlink" x="0px" y="0px"
	 viewBox="-249 355 112 84" enable-background="new -249 355 112 84" xml:space="preserve">
<path fill="#FFFFFF" d="M-137,365.4v35.2c0,0-7.3,1.5-8.8,1.7c-1.5,0.2-6.2,1.8-9.6-1.6c-5.2-5.2-23.8-24.4-23.8-24.4
	s-3.2-3.3-8.4-0.4c-4.7,2.6-11.7,6.3-14.6,7.8c-1,0.8-2.3,1.2-3.7,1.2c-3.6,0-6.4-3-6.4-6.7c0-2.9,1.8-5.4,4.3-6.3
	c6.7-4.2,20.7-12.3,26.5-15.6c3.6-2,6.1-2.1,11,2.1c6,5.3,11.4,10,11.4,10s2.5,1.2,4.5,0.9C-150.3,368.8-137,365.4-137,365.4z
	 M-211,425c0.9-2.4,0.6-5.1-1.1-6.9c-1.6-1.7-3.8-2.1-6-1.6c0.6-2.2,0.3-4.6-1.3-6.2c-1.6-1.7-3.8-2.1-6-1.6
	c0.6-2.2,0.3-4.6-1.3-6.2c-2.4-2.6-6.7-2.5-9.4,0.3c-2.8,2.8-4.5,7.7-2.1,10.7c2.5,2.9,5.3,1.1,7.4,0.6c-0.6,2.2-2.4,4.3-0.2,7.2
	c2.2,2.9,5.3,1.1,7.4,0.6c-0.6,2.2-2.3,4.5-0.2,7.2c2.1,2.7,5.7,1.3,8,0.5c-0.9,2.4-2.8,5-0.3,7.9c2.5,2.9,8.1,1.5,10.9-1.2
	c2.8-2.7,3-7.1,0.6-9.7C-206.2,424.7-208.7,424.3-211,425z M-160.4,406.6c-20-20.7-10.6-11-21.4-22.2c0,0-3.3-3.4-7.5-1.4
	c-3,1.4-6.9,3.2-9.8,4.6c-3.2,1.7-6,2.3-6.6,2.3c-6.2,0-11.2-5.2-11.2-11.6c0-4.2,2.1-7.8,5.3-9.8c4.5-3.2,14.7-8.9,14.7-8.9
	s-3.1-4.1-10-4.1c-6.9,0-21.2,9.7-21.2,9.7s-4.1,2.7-9.9,0.3l-11.2-4v40.2c0,0,3.2,1,6,2.2c0.7-1.9,1.7-3.7,3.1-5.1
	c4.8-4.7,12.6-4.7,16.9-0.1c1.3,1.4,2.2,3.1,2.7,4.9c1.7,0.6,3.3,1.5,4.6,2.9c1.3,1.4,2.2,3.1,2.7,4.9c1.7,0.6,3.3,1.5,4.6,2.9
	c1.4,1.5,2.4,3.4,2.8,5.4c1.8,0.6,3.5,1.6,4.8,3c2.6,2.8,3.5,6.5,3,10.1c0,0,0,0,0,0l0,0c0,0,0,0,0,0c0,0,0,0,0,0
	c0.1,0.1,1.6,1.9,2.6,2.9c1.9,2,5,2,7,0c1.9-2,1.9-5.2,0-7.2c-0.1-0.1-0.1-0.1-0.2-0.2c0,0,0,0,0,0c-6.5-6.7-6.8-7.2-6.2-7.9
	c0.6-0.7,1.6,0.8,8.8,8.3c0,0,0.1,0.1,0.1,0.1c0.1,0.2,0.3,0.4,0.5,0.6c1.9,2,5,2,7,0c1.9-2,1.9-5.2,0-7.2c-0.1-0.1-0.2-0.2-0.3-0.3
	c-0.1-0.1-0.2-0.2-0.3-0.3c-6.6-6.8-7.3-8.1-6.8-8.7c0.6-0.6,3.6,2.9,10.2,9.7c0,0,0,0,0,0c1.9,1.8,4.9,1.8,6.8-0.2
	c1.8-1.9,1.9-4.8,0.3-6.8c0-0.1-0.1-0.2-0.2-0.3c-8.3-8.6-8-8.8-7.5-9.3s0.5-0.6,8.6,7.8c0,0,0.1,0.1,0.1,0.1c1.9,2,5,2,7,0
	c1.9-2,1.9-5.2,0-7.2C-160.3,406.7-160.3,406.7-160.4,406.6z"/>
</svg>
