<?xml version="1.0" encoding="utf-8"?>
<!-- Generator: Adobe Illustrator 18.1.0, SVG Export Plug-In . SVG Version: 6.00 Build 0)  -->
<svg version="1.1" id="Layer_1" xmlns="http://www.w3.org/2000/svg" xmlns:xlink="http://www.w3.org/1999/xlink" x="0px" y="0px"
	 viewBox="0 0 612 792" enable-background="new 0 0 612 792" xml:space="preserve">
<path fill="#FFFFFF" stroke="#000000" stroke-miterlimit="10" d="M377.4,610.2c0,7.5-6.1,13.6-13.6,13.6H255
	c-7.5,0-13.6-6.1-13.6-13.6s6.1-13.6,13.6-13.6h108.8C371.3,596.6,377.4,602.7,377.4,610.2z M363.8,630.6H255
	c-8.9,0-15.9,8.6-12.9,18c1.8,5.7,7.5,9.2,13.5,9.2h0.2c7.9,0,15,4.4,18.6,11.5l0.1,0.3c4.7,9.5,14.4,15.4,25,15.4h19.9
	c10.6,0,20.3-6,25-15.4l0.1-0.3c3.5-7,10.7-11.5,18.6-11.5h0.2c5.9,0,11.7-3.5,13.5-9.2C379.7,639.2,372.7,630.6,363.8,630.6z
	 M309.4,195.4c7.5,0,13.6-6.1,13.6-13.6v-54.4c0-7.5-6.1-13.6-13.6-13.6c-7.5,0-13.6,6.1-13.6,13.6v54.4
	C295.8,189.3,301.9,195.4,309.4,195.4z M165.2,247.2c2.7,2.7,6.1,4,9.6,4c3.5,0,7-1.3,9.6-4c5.3-5.3,5.3-13.9,0-19.2l-38.5-38.5
	c-5.3-5.3-13.9-5.3-19.2,0c-5.3,5.3-5.3,13.9,0,19.2L165.2,247.2z M132.6,372.2c0-7.5-6.1-13.6-13.6-13.6H64.6
	c-7.5,0-13.6,6.1-13.6,13.6s6.1,13.6,13.6,13.6H119C126.5,385.8,132.6,379.7,132.6,372.2z M165.2,497.2l-38.5,38.5
	c-5.3,5.3-5.3,13.9,0,19.2c2.7,2.7,6.1,4,9.6,4s7-1.3,9.6-4l38.5-38.5c5.3-5.3,5.3-13.9,0-19.2C179.1,491.9,170.5,491.9,165.2,497.2
	z M453.6,497.2c-5.3-5.3-13.9-5.3-19.2,0c-5.3,5.3-5.3,13.9,0,19.2l38.5,38.5c2.7,2.7,6.1,4,9.6,4s7-1.3,9.6-4
	c5.3-5.3,5.3-13.9,0-19.2L453.6,497.2z M554.2,358.6h-54.4c-7.5,0-13.6,6.1-13.6,13.6s6.1,13.6,13.6,13.6h54.4
	c7.5,0,13.6-6.1,13.6-13.6S561.7,358.6,554.2,358.6z M444,251.2c3.5,0,7-1.3,9.6-4l38.5-38.5c5.3-5.3,5.3-13.9,0-19.2
	c-5.3-5.3-13.9-5.3-19.2,0L434.4,228c-5.3,5.3-5.3,13.9,0,19.2C437.1,249.8,440.6,251.2,444,251.2z M377.4,576.2
	c0,7.5-6.1,13.6-13.6,13.6H255c-7.5,0-13.6-6.1-13.6-13.6c0-7.2,5.7-13.1,12.8-13.5c-8.5-76.5-87.6-93.6-87.6-183.7
	c0-78.9,63.9-142.8,142.8-142.8S452.2,300.1,452.2,379c0,90.1-79.2,107.2-87.6,183.7C371.7,563.1,377.4,569,377.4,576.2z
	 M278.1,274.3c-2.1-5.2-8.1-7.7-13.3-5.6c-34.8,14.1-61.1,44.2-70.5,80.5c-1.4,5.5,1.9,11,7.3,12.4c0.8,0.2,1.7,0.3,2.5,0.3
	c4.5,0,8.7-3.1,9.9-7.6c7.8-30.1,29.6-55.1,58.4-66.7C277.7,285.5,280.2,279.6,278.1,274.3z"/>
</svg>
