<?xml version="1.0" encoding="utf-8"?>
<!-- Generator: Adobe Illustrator 18.1.0, SVG Export Plug-In . SVG Version: 6.00 Build 0)  -->
<!DOCTYPE svg PUBLIC "-//W3C//DTD SVG 1.1//EN" "http://www.w3.org/Graphics/SVG/1.1/DTD/svg11.dtd">
<svg version="1.1" id="Lager_1" xmlns="http://www.w3.org/2000/svg" xmlns:xlink="http://www.w3.org/1999/xlink" x="0px" y="0px"
	 viewBox="0 0 300 300" enable-background="new 0 0 300 300" xml:space="preserve">
<path fill="#FFFFFF" d="M164,125L164,125c18.4,0,34.7,9.4,44,23.9c0.2,0.3,0.4,0.5,0.6,0.9c0,0,0,0,0,0c0.1,0.1,0.2,0.2,0.3,0.3
	c0.2,0.2,0.4,0.4,0.6,0.6c0.2,0.2,0.4,0.4,0.6,0.5c0.7,0.5,1.4,0.9,2.3,1.1c0.1,0,0.3,0.1,0.4,0.1c0.1,0,0.3,0.1,0.4,0.1
	c0.4,0.1,0.9,0.1,1.3,0.1c0.4,0,0.9,0,1.3-0.1c0.4-0.1,0.9-0.2,1.3-0.3c0.1,0,0.1-0.1,0.2-0.1c2.7-1.1,4.5-3.6,4.6-6.6
	c0,0,0,0,0-0.1c0-0.3,0-0.6,0-0.9c0,0,0,0,0,0v-0.4c0-14.9,12-27,27-27c14.9,0,27,12.1,27,27c0,14.9-12.1,27-27,27
	c-7.7,0-14.7-3.2-19.6-8.4c-0.6-0.7-1.2-1.3-1.8-2.1c-1.3-1.1-3-1.7-4.8-1.7c-0.9,0-1.8,0.2-2.6,0.5c-0.1,0-0.2,0.1-0.3,0.1
	c-2.7,1.1-4.6,3.8-4.6,6.9c0,0.2,0,0.4,0,0.6c0.1,0.5,0.2,0.9,0.2,1.4c0.4,2.7,0.7,5.6,0.7,8.4c0,10.2-2.9,19.6-7.9,27.7
	c-0.2,0.3-0.4,0.7-0.6,1c-0.4,0.8-0.6,1.6-0.6,2.5c0,1.7,0.7,3.2,1.9,4.2l24.9,22.6l0,0c0.1,0.1,0.3,0.3,0.4,0.4
	c0.8,0.7,1.9,1.1,3,1.1c0.8,0,1.6-0.2,2.3-0.6c0.3-0.2,0.5-0.4,0.8-0.5c5-3.3,11-5.2,17.4-5.2c17.6,0,31.9,14.3,31.9,31.9
	s-14.3,31.9-31.9,31.9S226,279.7,226,262c0-5.1,1.2-10,3.4-14.3c0.2-0.4,0.4-0.7,0.5-1c0.2-0.6,0.4-1.2,0.4-1.9c0-1.6-0.7-3-1.8-4
	l-25.4-23.1l0,0c-0.9-0.8-2-1.2-3.2-1.2c-1,0-2,0.3-2.8,0.9c-0.2,0.1-0.4,0.3-0.5,0.4c-9,7.2-20.3,11.4-32.7,11.4
	c-4.4,0-8.7-0.5-12.8-1.6c-0.5-0.1-1-0.2-1.5-0.2c-1.4,0-2.8,0.5-3.8,1.4c-0.6,0.5-1.1,1.2-1.5,1.9l-0.3,0.6c0,0,0,0.1,0,0.1
	c-0.3,0.7-0.4,1.5-0.4,2.3c0,1.8,0.7,3.3,1.8,4.5c0.2,0.2,0.4,0.4,0.6,0.6c0,0,0,0,0,0c5,4.8,8.1,11.5,8.1,19
	c0,14.5-11.7,26.2-26.2,26.2c-14.5,0-26.2-11.7-26.2-26.2s11.7-26.2,26.2-26.2c0.7,0,1.4,0,2.2,0.1c0.3,0,0.6,0,0.8,0.1
	c0,0,0.1,0,0.2,0c2.5,0,4.7-1.6,5.6-3.9c0.1-0.2,0.1-0.4,0.2-0.6c0.1-0.2,0.1-0.4,0.1-0.6c0-0.2,0.1-0.4,0.1-0.6c0-0.2,0-0.5,0-0.7
	c0-2-0.8-3.4-2.2-4.6c-0.2-0.2-0.2-0.2-0.7-0.5c-0.2-0.1-0.2-0.3-0.3-0.4c-13.3-9.4-22.9-25.3-22.9-43.3v-0.2c0-0.9-0.1-0.5-0.2-2
	c-0.6-1.7-1.5-2.7-3.2-3c-0.2,0-0.4-0.1-0.5-0.1l-42.8-7.1c-2.1-0.4-4.2,0.6-5.2,2.4l0,0c-0.1,0.2-0.2,0.4-0.3,0.6
	c-4.3,8.5-13.2,14.4-23.4,14.4c-14.5,0-26.2-11.7-26.2-26.2c0-14.5,11.7-26.2,26.2-26.2c12.1,0,24.1,9.1,25.9,22.5c0,0,0,0.1,0,0.1
	c0.3,2.1,2,3.8,4,4.2l43,7.4c0.3,0.1,0.7,0.1,1,0.1c1.9,0,3.5-1,4.4-2.5c0.1-0.2,0.1-0.3,0.2-0.5c0.1-0.4,0.3-0.8,0.4-1.2
	c5.2-14.9,17-26.8,31.8-32.2c0.4-0.1,0.8-0.5,1.2-0.5c0,0,0,0,0,0c0.3,0,0.6-0.1,0.9-0.2c-0.3,0.1-0.6,0.2-0.9,0.3
	c1.7-0.8,2.8-2.6,2.8-4.7c0-0.4,0-0.7-0.1-1l-4.6-26.9c0,0,0-0.1,0-0.1c-0.4-2.2-2.2-3.9-4.4-4.2c-0.3,0-0.6,0-0.9,0
	c-22.8-0.8-41-19.5-41-42.5c0-23.5,19.1-42.6,42.6-42.6c23.5,0,42.6,19.1,42.6,42.6c0,18-11.2,33.5-27.1,39.7
	c-0.3,0.1-0.6,0.2-0.9,0.3c-1.7,0.8-2.9,2.6-2.9,4.6c0,0.4,0,0.7,0.1,1l4.5,26.7c0,0,0.1,0.4,0.1,0.7c0.5,2.1,2.7,4.3,4.9,4.6"/>
</svg>
