<?xml version="1.0" encoding="utf-8"?>
<!-- Generator: Adobe Illustrator 18.1.0, SVG Export Plug-In . SVG Version: 6.00 Build 0)  -->
<svg version="1.1" id="Capa_1" xmlns="http://www.w3.org/2000/svg" xmlns:xlink="http://www.w3.org/1999/xlink" x="0px" y="0px"
	 viewBox="-293 385.7 23.3 23.3" enable-background="new -293 385.7 23.3 23.3" xml:space="preserve">
<g>
	<circle fill="#FFFFFF" cx="-281.3" cy="387.5" r="1.8"/>
	<circle fill="#FFFFFF" cx="-281.3" cy="407.2" r="1.8"/>
	<circle fill="#FFFFFF" cx="-271.5" cy="397.3" r="1.8"/>
	<circle fill="#FFFFFF" cx="-291.2" cy="397.3" r="1.8"/>
	<path fill="#FFFFFF" d="M-276,402.7l-0.4-1.5l-0.4,0.4l-1.7-1.7c0.5-0.6,0.8-1.4,0.9-2.2h2.5v0.5l1.4-0.7l-1.4-0.7v0.5h-2.5
		c-0.1-0.8-0.4-1.6-0.9-2.1l1.8-1.8l0.4,0.4l0.4-1.5l-1.5,0.4l0.4,0.4l-1.8,1.8c-0.6-0.5-1.3-0.8-2.1-0.9v-2.6h0.5l-0.7-1.4
		l-0.7,1.4h0.5v2.6c-0.8,0.1-1.6,0.4-2.1,0.9l-1.8-1.8l0.4-0.4l-1.5-0.4l0.4,1.5l0.4-0.4l1.8,1.8c-0.5,0.6-0.9,1.3-0.9,2.1h-2.5
		v-0.5l-1.4,0.7l1.4,0.7v-0.5h2.5c0,0.8,0.4,1.6,0.9,2.2l-1.7,1.7l-0.4-0.4l-0.4,1.5l1.5-0.4l-0.4-0.4l1.7-1.7
		c0.6,0.5,1.4,0.9,2.2,0.9v2.4h-0.5l0.7,1.4l0.7-1.4h-0.5v-2.4c0.8-0.1,1.6-0.4,2.2-0.9l1.7,1.7l-0.4,0.4L-276,402.7z"/>
	<circle fill="#FFFFFF" cx="-274.4" cy="390.4" r="1.8"/>
	<circle fill="#FFFFFF" cx="-288.3" cy="404.3" r="1.8"/>
	<circle fill="#FFFFFF" cx="-274.4" cy="404.3" r="1.8"/>
	<circle fill="#FFFFFF" cx="-288.3" cy="390.4" r="1.8"/>
</g>
</svg>
